<svg width="93" height="93" viewBox="0 0 93 93" fill="none" xmlns="http://www.w3.org/2000/svg">
<path d="M36.8125 60.388V32.612C36.8131 32.2645 36.9071 31.9235 37.0848 31.6248C37.2624 31.3261 37.5171 31.0807 37.8222 30.9143C38.1273 30.7479 38.4715 30.6666 38.8189 30.6789C39.1662 30.6913 39.5038 30.7968 39.7963 30.9845L61.4032 44.8686C61.6768 45.0439 61.902 45.2852 62.0579 45.5703C62.2138 45.8554 62.2955 46.1751 62.2955 46.5C62.2955 46.8249 62.2138 47.1446 62.0579 47.4297C61.902 47.7148 61.6768 47.9561 61.4032 48.1314L39.7963 62.0194C39.5038 62.207 39.1662 62.3126 38.8189 62.3249C38.4715 62.3373 38.1273 62.256 37.8222 62.0896C37.5171 61.9232 37.2624 61.6777 37.0848 61.3791C36.9071 61.0804 36.8131 60.7394 36.8125 60.3919V60.388Z" fill="white"/>
<path d="M3.875 46.5C3.875 22.9594 22.9594 3.875 46.5 3.875C70.0406 3.875 89.125 22.9594 89.125 46.5C89.125 70.0406 70.0406 89.125 46.5 89.125C22.9594 89.125 3.875 70.0406 3.875 46.5ZM46.5 9.6875C36.7367 9.6875 27.3733 13.5659 20.4696 20.4696C13.5659 27.3733 9.6875 36.7367 9.6875 46.5C9.6875 56.2633 13.5659 65.6267 20.4696 72.5304C27.3733 79.4341 36.7367 83.3125 46.5 83.3125C56.2633 83.3125 65.6267 79.4341 72.5304 72.5304C79.4341 65.6267 83.3125 56.2633 83.3125 46.5C83.3125 36.7367 79.4341 27.3733 72.5304 20.4696C65.6267 13.5659 56.2633 9.6875 46.5 9.6875Z" fill="white"/>
</svg>
