<svg version="1.2" baseProfile="tiny-ps" xmlns="http://www.w3.org/2000/svg" viewBox="0 0 2000 393" width="2000" height="393">
	<title>logo-svg</title>
	<style>
		tspan { white-space:pre }
		.shp0 { fill: #000000 } 
		.shp1 { fill: #ffd201 } 
	</style>
	<g id="Layer">
		<path id="Layer" class="shp0" d="M705.95 354.73C718.24 354.73 726.79 345.73 731.6 327.74C716.81 327.74 704.48 323.29 694.6 314.38C684.71 305.48 676.21 289.62 669.08 266.82L649.58 203.77C648.87 201.81 649.18 200.03 650.52 198.43C651.86 196.83 653.59 196.02 655.73 196.02L682.98 196.02C685.47 196.02 687.88 196.87 690.19 198.56C692.5 200.25 694.02 202.35 694.73 204.84L711.83 260.15C716.1 273.69 720.42 283.09 724.79 288.34C729.15 293.6 734.36 296.22 740.42 296.22L766.34 204.84C767.05 202.35 768.43 200.26 770.48 198.56C772.53 196.87 774.8 196.02 777.29 196.02L804.81 196.02C806.95 196.02 808.64 196.82 809.89 198.43C811.13 200.03 811.49 201.82 810.96 203.77L776.76 325.6C770.7 347.15 763.18 362.56 754.18 371.82C745.18 381.08 733.11 385.71 717.98 385.71C704.8 385.71 693.49 384.82 684.05 383.04C681.73 382.68 679.82 381.75 678.31 380.23C676.79 378.71 676.04 376.98 676.04 375.02L676.04 360.59C676.04 358.27 676.8 356.36 678.31 354.85C679.82 353.33 681.74 352.58 684.05 352.58L688.86 352.58C690.82 352.58 693.62 352.94 697.28 353.65C700.92 354.38 703.81 354.73 705.95 354.73Z" />
		<path id="Layer" fill-rule="evenodd" class="shp0" d="M916.75 193.36C936.34 193.36 952.24 199.77 964.44 212.6C976.64 225.43 982.74 243.68 982.74 267.37C982.74 291.42 976.42 309.81 963.77 322.54C951.12 335.28 934.11 341.64 912.74 341.64C901.69 341.64 889.14 339.41 875.07 334.96L875.07 375.04C875.07 377.35 874.31 379.27 872.8 380.78C871.28 382.29 869.37 383.05 867.05 383.05L837.93 383.05C835.61 383.05 833.7 382.29 832.18 380.78C830.67 379.27 829.91 377.35 829.91 375.04L829.91 204.04C829.91 201.73 830.67 199.81 832.18 198.3C833.69 196.79 835.61 196.03 837.93 196.03L863.04 196.03C865.35 196.03 867.27 196.79 868.79 198.3C870.3 199.82 871.06 201.73 871.06 204.04L871.06 208.05C884.78 198.26 900.01 193.36 916.75 193.36ZM906.07 224.89C897.87 224.89 887.54 228.81 875.08 236.65L875.08 304.78C886.3 308.35 895.74 310.12 903.4 310.12C915.33 310.12 923.79 306.74 928.78 299.97C933.77 293.2 936.26 282.34 936.26 267.37C936.26 252.59 933.9 241.81 929.18 235.04C924.46 228.27 916.75 224.89 906.07 224.89Z" />
		<path id="Layer" class="shp0" d="M1079.46 224.89C1066.99 224.89 1058.17 228.23 1053.01 234.91C1047.84 241.59 1045.26 252.5 1045.26 267.64C1045.26 282.6 1047.93 293.42 1053.28 300.1C1058.63 306.78 1067.8 310.12 1080.8 310.12C1094.34 310.12 1103.69 306.02 1108.85 297.83C1112.94 291.42 1117.93 288.21 1123.81 288.21L1143.31 288.21C1145.62 288.21 1147.54 288.97 1149.05 290.48C1150.56 292 1151.32 293.91 1151.32 296.22C1151.32 311.18 1144.86 322.5 1131.95 330.15C1119.03 337.81 1100.91 341.64 1077.58 341.64C1052.11 341.64 1032.6 335.36 1019.07 322.8C1005.53 310.24 998.76 291.85 998.76 267.63C998.76 243.23 1005.48 224.75 1018.93 212.19C1032.38 199.63 1051.48 193.35 1076.24 193.35C1099.57 193.35 1117.7 197.18 1130.61 204.84C1143.52 212.5 1149.98 223.81 1149.98 238.77C1149.98 241.09 1149.22 243 1147.71 244.52C1146.2 246.03 1144.28 246.79 1141.97 246.79L1122.47 246.79C1116.59 246.79 1111.6 243.58 1107.51 237.17C1102.35 228.98 1093 224.89 1079.46 224.89Z" />
		<path id="Layer" fill-rule="evenodd" class="shp0" d="M1242.97 223.01C1230.86 223.01 1222.4 225.95 1217.59 231.83C1213.85 236.46 1208.86 238.78 1202.63 238.78L1183.13 238.78C1180.81 238.78 1178.9 238.03 1177.38 236.51C1175.86 235 1175.11 233.08 1175.11 230.77C1175.11 205.83 1198.8 193.36 1246.18 193.36C1266.84 193.36 1283.45 197.99 1296.01 207.25C1308.57 216.51 1314.85 230.85 1314.85 250.27L1314.85 330.96C1314.85 333.28 1314.09 335.19 1312.58 336.7C1311.06 338.22 1309.15 338.97 1306.83 338.97L1281.72 338.97C1279.4 338.97 1277.49 338.21 1275.97 336.7C1274.46 335.19 1273.7 333.27 1273.7 330.96L1273.7 326.95C1259.98 336.75 1244.22 341.65 1226.41 341.65C1208.24 341.65 1193.41 337.64 1181.92 329.63C1170.43 321.61 1164.69 310.31 1164.69 295.7C1164.69 281.1 1170.43 269.87 1181.92 262.03C1193.41 254.19 1208.24 250.27 1226.41 250.27L1269.69 250.27C1269.69 240.12 1267.55 233.04 1263.28 229.03C1259.01 225.02 1252.23 223.01 1242.97 223.01ZM1230.95 311.99C1244.31 311.99 1257.22 308.07 1269.69 300.23L1269.69 279.92L1229.61 279.92C1223.55 279.92 1218.74 281.39 1215.18 284.33C1211.61 287.27 1209.84 291.06 1209.84 295.69C1209.84 300.5 1211.66 304.42 1215.32 307.45C1218.97 310.48 1224.18 311.99 1230.95 311.99Z" />
		<path id="Layer" class="shp0" d="M1392.6 207.52L1414.24 240.38L1435.88 207.52C1441.04 199.86 1447.81 196.03 1456.19 196.03L1484.51 196.03C1486.47 196.03 1487.98 196.66 1489.05 197.9C1490.12 199.15 1490.61 200.62 1490.52 202.31C1490.43 204 1489.76 205.74 1488.52 207.52L1446.04 267.37L1491.46 327.49C1493.42 329.81 1494 332.3 1493.2 334.97C1492.4 337.64 1490.48 338.98 1487.46 338.98L1459.67 338.98C1451.65 338.98 1444.88 335.15 1439.36 327.49L1414.24 293.56L1389.12 327.49C1383.6 335.15 1376.83 338.98 1368.81 338.98L1341.02 338.98C1337.99 338.98 1336.08 337.64 1335.28 334.97C1334.48 332.3 1335.05 329.81 1337.02 327.49L1382.44 267.37L1339.96 207.52C1338.71 205.74 1338.04 204 1337.96 202.31C1337.87 200.62 1338.36 199.15 1339.43 197.9C1340.5 196.66 1342.01 196.03 1343.97 196.03L1372.29 196.03C1380.66 196.03 1387.43 199.86 1392.6 207.52Z" />
		<path id="Layer" class="shp1" d="M1508.28 322.67L1508.28 314.39C1508.28 308.69 1509.79 304.33 1512.82 301.3C1515.85 298.27 1520.21 296.76 1525.91 296.76L1541.94 296.76C1547.64 296.76 1552 298.28 1555.03 301.3C1558.06 304.33 1559.57 308.69 1559.57 314.39L1559.57 322.67C1559.57 328.19 1558.05 332.51 1555.03 335.63C1552 338.75 1547.64 340.31 1541.94 340.31L1525.91 340.31C1520.21 340.31 1515.84 338.75 1512.82 335.63C1509.79 332.52 1508.28 328.2 1508.28 322.67Z" />
		<path id="Layer" fill-rule="evenodd" class="shp1" d="M1673.13 193.36C1692.72 193.36 1708.62 199.77 1720.82 212.6C1733.02 225.43 1739.12 243.68 1739.12 267.37C1739.12 291.42 1732.8 309.81 1720.15 322.54C1707.5 335.28 1690.49 341.64 1669.12 341.64C1658.07 341.64 1645.52 339.41 1631.45 334.96L1631.45 375.04C1631.45 377.35 1630.69 379.27 1629.18 380.78C1627.66 382.29 1625.75 383.05 1623.43 383.05L1594.31 383.05C1591.99 383.05 1590.08 382.29 1588.56 380.78C1587.05 379.27 1586.29 377.35 1586.29 375.04L1586.29 204.04C1586.29 201.73 1587.05 199.81 1588.56 198.3C1590.07 196.79 1591.99 196.03 1594.31 196.03L1619.42 196.03C1621.73 196.03 1623.65 196.79 1625.17 198.3C1626.68 199.82 1627.44 201.73 1627.44 204.04L1627.44 208.05C1641.16 198.26 1656.39 193.36 1673.13 193.36ZM1662.44 224.89C1654.24 224.89 1643.91 228.81 1631.45 236.65L1631.45 304.78C1642.67 308.35 1652.11 310.12 1659.77 310.12C1671.7 310.12 1680.16 306.74 1685.15 299.97C1690.14 293.2 1692.63 282.34 1692.63 267.37C1692.63 252.59 1690.27 241.81 1685.55 235.04C1680.83 228.27 1673.13 224.89 1662.44 224.89Z" />
		<path id="Layer" class="shp1" d="M1802.71 354.73C1815 354.73 1823.55 345.73 1828.36 327.74C1813.57 327.74 1801.24 323.29 1791.36 314.38C1781.47 305.48 1772.97 289.62 1765.84 266.82L1746.34 203.77C1745.63 201.81 1745.94 200.03 1747.27 198.43C1748.61 196.83 1750.34 196.02 1752.48 196.02L1779.73 196.02C1782.22 196.02 1784.63 196.87 1786.94 198.56C1789.25 200.25 1790.77 202.35 1791.48 204.84L1808.58 260.15C1812.86 273.69 1817.17 283.09 1821.54 288.34C1825.9 293.6 1831.11 296.22 1837.17 296.22L1863.09 204.84C1863.8 202.35 1865.18 200.26 1867.23 198.56C1869.28 196.87 1871.55 196.02 1874.04 196.02L1901.56 196.02C1903.7 196.02 1905.39 196.82 1906.64 198.43C1907.88 200.03 1908.24 201.82 1907.71 203.77L1873.51 325.6C1867.45 347.15 1859.93 362.56 1850.93 371.82C1841.93 381.08 1829.86 385.71 1814.73 385.71C1801.55 385.71 1790.24 384.82 1780.8 383.04C1778.48 382.68 1776.57 381.75 1775.06 380.23C1773.54 378.71 1772.79 376.98 1772.79 375.02L1772.79 360.59C1772.79 358.27 1773.54 356.36 1775.06 354.85C1776.57 353.33 1778.49 352.58 1780.8 352.58L1785.61 352.58C1787.57 352.58 1790.37 352.94 1794.03 353.65C1797.68 354.38 1800.57 354.73 1802.71 354.73Z" />
	</g>
	<path id="Layer" fill-rule="evenodd" class="shp0" d="M202.76 139.08L202.76 57.55C202.76 54.73 204.84 52.36 207.65 52L249.76 46.66L341.7 7.64L568.64 103.99L443.15 136.54L443.15 114.69L441.45 110C437.28 105.05 432.52 100.46 427.39 96.28C403.55 76.99 371.5 67.76 339.97 68.06C308.39 68.4 277.03 78.31 254.65 97.19C250.04 101.08 245.75 105.43 241.92 110.17L240.29 114.7L240.29 136.55L213.94 129.72L213.94 139.11C216.52 140.9 218.22 143.86 218.22 147.23C218.22 150.86 216.22 154 213.31 155.73C214.82 156.46 216.28 157.55 217.59 158.97L220.99 191.05C217.5 193.83 213.11 195.5 208.32 195.5C203.52 195.5 199.16 193.84 195.65 191.05L199.05 158.97C200.36 157.55 201.81 156.47 203.32 155.73C200.4 154.01 198.44 150.87 198.44 147.23C198.44 143.83 200.17 140.86 202.76 139.08ZM255.35 116.8C293.43 69.84 386.46 67.51 428.04 116.8C428.04 130.35 428.04 143.91 428.04 157.46C416.96 149.67 388.13 131.59 347.13 130.33C299.34 128.86 265.72 151.17 255.29 158.72L255.35 116.8ZM114.78 103.98L191.57 71.38L191.57 123.9L114.78 103.98Z" />
	<g id="Layer">
		<path id="Layer" class="shp0" d="M626.87 208.55L609.72 244.75C606.82 250.74 602.82 255.91 597.74 260.26C592.66 264.61 587.21 267.43 581.41 268.7C592.3 271.97 601.73 279.95 609.72 292.65L632.31 329.12C634.49 332.75 635.12 335.75 634.22 338.1C633.31 340.46 631.13 341.64 627.69 341.64L602.65 341.64C594.12 341.64 587.32 337.47 582.24 329.12L565.36 301.63C558.1 289.84 547.57 283.94 533.79 283.94L533.79 333.48C533.79 335.84 533.02 337.79 531.48 339.33C529.94 340.87 527.98 341.64 525.63 341.64L495.96 341.64C493.6 341.64 491.65 340.87 490.11 339.33C488.57 337.79 487.8 335.84 487.8 333.48L487.8 204.19C487.8 201.83 488.57 199.88 490.11 198.34C491.65 196.8 493.6 196.03 495.96 196.03L525.63 196.03C527.99 196.03 529.94 196.8 531.48 198.34C533.02 199.88 533.79 201.84 533.79 204.19L533.79 253.73C549.21 253.73 559.74 247.74 565.36 235.77L578.15 208.55C579.96 204.74 582.59 201.7 586.04 199.43C589.48 197.16 593.21 196.03 597.2 196.03L622.24 196.03C629.14 196.03 630.68 200.2 626.87 208.55Z" />
	</g>
	<path id="Layer" fill-rule="evenodd" class="shp1" d="M341.86 384.43C326.22 384.43 311.38 382.07 297.35 377.36C283.32 372.65 270.46 365.63 258.79 356.31C247.11 346.99 237.79 334.35 230.83 318.39C223.87 302.43 220.39 284.16 220.39 263.6C220.39 243.03 223.87 224.77 230.83 208.81C237.79 192.85 247.11 180.21 258.79 170.89C270.46 161.57 283.32 154.56 297.35 149.84C311.38 145.13 326.22 142.77 341.86 142.77C357.29 142.77 372.01 145.13 386.05 149.84C400.08 154.56 412.99 161.57 424.77 170.89C436.55 180.21 445.93 192.85 452.89 208.81C459.85 224.77 463.33 243.04 463.33 263.6C463.33 284.17 459.85 302.44 452.89 318.39C445.93 334.35 436.55 346.99 424.77 356.31C412.98 365.63 400.07 372.65 386.05 377.36C372.01 382.07 357.29 384.43 341.86 384.43ZM296.71 316.94C308.17 330.65 323.22 337.51 341.86 337.51C360.5 337.51 375.49 330.66 386.85 316.94C398.2 303.23 403.88 285.45 403.88 263.59C403.88 241.74 398.2 223.96 386.85 210.24C375.49 196.53 360.5 189.67 341.86 189.67C323.22 189.67 308.17 196.53 296.71 210.24C285.25 223.95 279.52 241.73 279.52 263.59C279.52 285.45 285.24 303.23 296.71 316.94Z" />
</svg>